HIERARCHY
ROOT Hips
{
 OFFSET 0.000000 0.000000 0.000000
 CHANNELS 6 Xposition Yposition Zposition Yrotation Xrotation Zrotation
 JOINT Chest
 {
  OFFSET 0.000000 9.585900 0.002600
  CHANNELS 3 Yrotation Xrotation Zrotation
  JOINT Chest2
  {
   OFFSET 0.000000 9.601200 -0.005300
   CHANNELS 3 Yrotation Xrotation Zrotation
   JOINT Chest3
   {
    OFFSET 0.000000 9.561800 0.000000
    CHANNELS 3 Yrotation Xrotation Zrotation
    JOINT Chest4
    {
     OFFSET 0.000000 9.552100 0.000000
     CHANNELS 3 Yrotation Xrotation Zrotation
     JOINT Neck
     {
      OFFSET 0.000000 14.453000 0.000000
      CHANNELS 3 Yrotation Xrotation Zrotation
      JOINT Head
      {
       OFFSET 0.000000 8.936500 -0.011300
       CHANNELS 3 Yrotation Xrotation Zrotation
       End Site
       {
        OFFSET 0.000000 17.073600 -0.006000
       }
      }
     }
     JOINT RightCollar
     {
      OFFSET -2.921100 9.558500 0.000000
      CHANNELS 3 Yrotation Xrotation Zrotation
      JOINT RightShoulder
      {
       OFFSET -13.519700 0.000000 0.000000
       CHANNELS 3 Yrotation Xrotation Zrotation
       JOINT RightElbow
       {
        OFFSET 0.000000 -29.696600 0.000000
        CHANNELS 3 Yrotation Xrotation Zrotation
        JOINT RightWrist
        {
         OFFSET 0.000000 -24.004700 0.000000
         CHANNELS 3 Yrotation Xrotation Zrotation
         End Site
         {
          OFFSET 0.000000 -17.728500 0.000000
         }
        }
       }
      }
     }
     JOINT LeftCollar
     {
      OFFSET 2.921100 9.558500 0.000000
      CHANNELS 3 Yrotation Xrotation Zrotation
      JOINT LeftShoulder
      {
       OFFSET 13.519700 0.000000 0.000000
       CHANNELS 3 Yrotation Xrotation Zrotation
       JOINT LeftElbow
       {
        OFFSET 0.000000 -29.696600 0.000000
        CHANNELS 3 Yrotation Xrotation Zrotation
        JOINT LeftWrist
        {
         OFFSET 0.000000 -24.004700 0.000000
         CHANNELS 3 Yrotation Xrotation Zrotation
         End Site
         {
          OFFSET 0.000000 -17.728500 0.000000
         }
        }
       }
      }
     }
    }
   }
  }
 }
 JOINT RightHip
 {
  OFFSET -7.771700 -0.012900 -0.001300
  CHANNELS 3 Yrotation Xrotation Zrotation
  JOINT RightKnee
  {
   OFFSET 0.000000 -40.869800 0.001200
   CHANNELS 3 Yrotation Xrotation Zrotation
   JOINT RightAnkle
   {
    OFFSET 0.000000 -39.717900 0.002100
    CHANNELS 3 Yrotation Xrotation Zrotation
    JOINT RightToe
    {
     OFFSET 0.000000 -4.965400 11.033500
     CHANNELS 3 Yrotation Xrotation Zrotation
     End Site
     {
      OFFSET 0.000000 -1.423100 5.872300
     }
    }
   }
  }
 }
 JOINT LeftHip
 {
  OFFSET 7.771700 -0.012900 -0.001300
  CHANNELS 3 Yrotation Xrotation Zrotation
  JOINT LeftKnee
  {
   OFFSET 0.000000 -40.869800 0.001200
   CHANNELS 3 Yrotation Xrotation Zrotation
   JOINT LeftAnkle
   {
    OFFSET 0.000000 -39.717900 0.002100
    CHANNELS 3 Yrotation Xrotation Zrotation
    JOINT LeftToe
    {
     OFFSET 0.000000 -4.965400 11.033500
     CHANNELS 3 Yrotation Xrotation Zrotation
     End Site
     {
      OFFSET 0.000000 -1.423100 5.872300
     }
    }
   }
  }
 }
}
MOTION
Frames: 12
Frame Time: 0.008333
-47.039028 54.785201 45.863649 -177.955876 -33.427369 -10.517514 -0.408219 14.961893 5.336555 -0.311639 8.690516 2.161888 -0.299204 10.797951 2.675925 -0.315479 8.713531 2.185388 0.841292 22.780497 -3.508466 1.711891 -1.215941 -3.984291 1.910765 3.747573 -4.064281 -21.123138 -11.321844 7.744968 -3.978613 -80.034659 13.485665 9.006904 -11.539997 -5.530229 -8.385766 1.329453 -3.171012 9.377769 -3.868550 -0.425209 -93.608302 -77.908182 99.045540 20.925010 -23.470134 -0.752723 -15.844132 -34.559179 2.633020 25.489465 85.771611 21.382036 0.595378 -15.498420 3.049087 -0.078277 0.447033 -0.027500 -13.675326 -44.788506 13.810706 170.799272 79.681566 165.318214 -1.780420 -16.323853 2.561159 -0.566337 -2.081781 -0.254683
-47.041757 54.794262 45.862918 -177.956992 -33.425844 -10.530213 -0.418114 14.979636 5.349829 -0.305911 8.687840 2.164546 -0.311716 10.825056 2.690774 -0.318608 8.728187 2.197665 0.680736 22.812347 -3.617732 1.563643 -1.176665 -4.066409 1.962554 3.798039 -4.051841 -21.219322 -11.464639 7.770126 -5.045633 -79.994260 14.459465 8.942399 -11.585407 -5.465918 -8.422202 1.392897 -3.186131 9.362438 -3.928950 -0.485899 -93.961636 -78.153118 99.427161 20.968757 -23.473208 -0.701282 -15.866500 -34.555907 2.643072 25.593763 85.765085 21.481373 0.601529 -15.501822 3.042422 -0.082552 0.450241 -0.028766 -13.690292 -44.789667 13.821388 170.770390 79.676675 165.296539 -1.771062 -16.319848 2.552065 -0.570939 -2.090997 -0.255661
-47.042951 54.802259 45.864142 -177.974361 -33.416523 -10.543663 -0.428250 15.017889 5.379697 -0.284671 8.656926 2.157527 -0.325228 10.854133 2.708440 -0.314818 8.746814 2.210679 0.511191 22.835022 -3.734813 1.407366 -1.147768 -4.154954 2.007741 3.843499 -4.042680 -21.294672 -11.591963 7.780995 -6.029374 -79.963020 15.343535 8.894316 -11.615958 -5.447366 -8.463337 1.449515 -3.200132 9.355244 -4.000801 -0.545879 -94.180650 -78.402049 99.666503 20.988488 -23.474310 -0.645193 -15.873383 -34.562114 2.671960 25.599740 85.759334 21.486653 0.594655 -15.498272 3.041025 -0.076749 0.451147 -0.027671 -13.706796 -44.800540 13.851136 170.743500 79.668383 165.275718 -1.759286 -16.313696 2.546097 -0.580362 -2.103288 -0.259950
-47.041757 54.811984 45.863138 -178.002379 -33.428920 -10.565813 -0.400444 15.040159 5.421075 -0.295991 8.679481 2.170599 -0.327579 10.869404 2.719723 -0.302036 8.768020 2.219457 0.331403 22.851842 -3.857515 1.241092 -1.125423 -4.247340 2.036552 3.882132 -4.031627 -21.362837 -11.711734 7.782692 -6.913061 -79.929530 16.135177 8.852857 -11.629421 -5.476660 -8.503360 1.469223 -3.217038 9.341111 -4.045436 -0.595898 -94.288287 -78.618603 99.794786 20.986356 -23.475025 -0.560936 -15.876126 -34.541455 2.707853 25.719761 85.747520 21.610251 0.589874 -15.494718 3.033596 -0.075704 0.453258 -0.028607 -13.717914 -44.790687 13.891316 170.703293 79.658724 165.242481 -1.724065 -16.283616 2.544129 -0.612079 -2.140212 -0.273732
-47.043325 54.819534 45.864105 -178.019374 -33.425687 -10.575568 -0.388674 15.050020 5.443835 -0.303630 8.751902 2.205697 -0.324358 10.841803 2.710276 -0.288651 8.784788 2.230405 0.143717 22.867861 -3.984396 1.067165 -1.103518 -4.342653 2.055154 3.917746 -4.018297 -21.437237 -11.826934 7.776591 -7.748466 -79.885311 16.890179 8.810664 -11.632253 -5.539848 -8.548430 1.479697 -3.234196 9.330874 -4.085578 -0.639320 -94.291845 -78.787341 99.813167 20.968329 -23.484108 -0.422028 -15.879352 -34.542913 2.720985 25.866573 85.737254 21.764875 0.588691 -15.492456 3.023492 -0.073214 0.455699 -0.028236 -13.724033 -44.796503 13.911574 170.682565 79.651690 165.228350 -1.712965 -16.279408 2.541203 -0.621000 -2.150840 -0.277984
-47.045481 54.826939 45.864590 -178.032856 -33.426066 -10.581913 -0.382859 15.109019 5.476669 -0.293109 8.714370 2.195620 -0.312712 10.928971 2.761965 -0.289278 8.752212 2.215751 -0.047479 22.886424 -4.115284 0.890404 -1.077914 -4.441726 2.069585 3.952375 -4.005793 -21.506805 -11.941303 7.766667 -8.608913 -79.827024 17.666516 8.771930 -11.627515 -5.624835 -8.578134 1.441037 -3.258956 9.317400 -4.090742 -0.659899 -94.155038 -78.915924 99.676872 20.929194 -23.510765 -0.206720 -15.879647 -34.541564 2.729306 25.996685 85.728832 21.898847 0.585468 -15.490905 3.019888 -0.071305 0.457853 -0.029483 -13.725576 -44.794170 13.925628 170.707117 79.651021 165.257547 -1.707992 -16.288937 2.538762 -0.618933 -2.147110 -0.278475
-47.047078 54.833823 45.865458 -178.043058 -33.423317 -10.590988 -0.371613 15.120011 5.497602 -0.291728 8.721355 2.201188 -0.299716 10.984433 2.795166 -0.287422 8.750949 2.218071 -0.239440 22.909948 -4.248827 0.713255 -1.045826 -4.543751 2.079192 3.983601 -3.994931 -21.552067 -12.055741 7.756187 -9.570012 -79.752353 18.519272 8.736096 -11.613855 -5.716910 -8.627822 1.463073 -3.273395 9.338175 -4.180358 -0.694202 -93.839506 -79.019760 99.341159 20.862627 -23.558615 0.092727 -15.886110 -34.543082 2.742373 26.134045 85.721825 22.038672 0.576851 -15.485351 3.017102 -0.069791 0.456367 -0.030806 -13.728162 -44.803549 13.932922 170.661779 79.642006 165.223460 -1.692165 -16.277820 2.536650 -0.631248 -2.163097 -0.285882
-47.047875 54.840464 45.866294 -178.054227 -33.420082 -10.601453 -0.358146 15.130385 5.520682 -0.282781 8.782574 2.232675 -0.295525 10.967477 2.791566 -0.281329 8.764576 2.228547 -0.431989 22.941163 -4.382386 0.535249 -1.004139 -4.646018 2.082738 4.011245 -3.981593 -21.636372 -12.148361 7.752848 -10.681054 -79.665710 19.555423 8.689695 -11.596213 -5.798875 -8.675967 1.483190 -3.282536 9.326725 -4.231734 -0.730160 -93.609714 -79.098891 99.119037 20.779070 -23.634069 0.466032 -15.895997 -34.543237 2.755369 26.308242 85.711547 22.211467 0.595049 -15.483749 3.006978 -0.067505 0.458007 -0.030182 -13.723372 -44.817814 13.934857 170.599736 79.628730 165.180568 -1.666499 -16.258229 2.530863 -0.651658 -2.187490 -0.293452
-47.049160 54.846560 45.867029 -178.065158 -33.414634 -10.605532 -0.341130 15.180069 5.550082 -0.284275 8.735901 2.220311 -0.276080 11.015616 2.817178 -0.273545 8.777745 2.238750 -0.624954 22.980052 -4.516004 0.356744 -0.952703 -4.748665 2.067276 3.987739 -3.990168 -21.745562 -12.142355 7.775260 -11.973767 -79.585314 20.807989 8.622032 -11.587342 -5.866042 -8.721874 1.482098 -3.291422 9.265249 -4.223691 -0.735094 -93.500371 -79.193828 99.063840 20.695265 -23.729976 0.896851 -15.905803 -34.548884 2.764903 26.428115 85.706598 22.333644 0.587809 -15.480030 2.999439 -0.066742 0.457648 -0.029936 -13.721507 -44.827745 13.942494 170.576646 79.622840 165.165212 -1.658819 -16.254625 2.527252 -0.657769 -2.193628 -0.294686
-47.049360 54.852549 45.867271 -178.071576 -33.408397 -10.614458 -0.326857 15.202097 5.572321 -0.279118 8.748306 2.231612 -0.263649 11.035634 2.829541 -0.265737 8.792108 2.249424 -0.816317 23.022975 -4.651118 0.180126 -0.895789 -4.853679 2.075505 4.027412 -3.961133 -21.811169 -12.252579 7.771534 -13.649714 -79.439630 22.359884 8.535297 -11.594392 -5.916050 -8.771796 1.475976 -3.298720 9.237273 -4.261416 -0.746476 -93.188773 -79.315009 98.773573 20.619626 -23.827131 1.363012 -15.925273 -34.552177 2.779346 26.529844 85.701575 22.434682 0.584483 -15.478293 2.993269 -0.066948 0.458247 -0.031874 -13.721166 -44.841731 13.949017 170.545255 79.613400 165.146713 -1.645049 -16.242127 2.523986 -0.669059 -2.209013 -0.298943
-47.049837 54.858245 45.866628 -178.073285 -33.401877 -10.619370 -0.320737 15.210462 5.583110 -0.269221 8.774399 2.245653 -0.252736 11.066937 2.843582 -0.258649 8.809087 2.260019 -1.005278 23.064405 -4.786374 0.005835 -0.840160 -4.959585 2.083945 4.053726 -3.932230 -21.875042 -12.361781 7.769694 -15.670877 -79.262228 24.242980 8.439532 -11.616545 -5.947424 -8.823500 1.461400 -3.305879 9.209673 -4.303138 -0.756968 -92.913266 -79.486686 98.523211 20.551744 -23.916209 1.840300 -15.948087 -34.557269 2.790340 26.645084 85.699587 22.542872 0.579267 -15.476455 2.989784 -0.068876 0.456664 -0.032557 -13.704553 -44.854434 13.940738 170.529415 79.608969 165.150744 -1.639572 -16.241384 2.521885 -0.673769 -2.217021 -0.300866
-47.049310 54.864109 45.864539 -178.077768 -33.399584 -10.623351 -0.310422 15.223948 5.594914 -0.259016 8.808575 2.260389 -0.241581 11.100783 2.855640 -0.267544 8.772524 2.254132 -1.173527 23.158720 -4.905873 -0.166835 -0.788363 -5.063506 2.097535 4.098660 -3.895360 -21.936369 -12.422829 7.783185 -17.907627 -79.078513 26.334672 8.338311 -11.649872 -5.971615 -8.865618 1.498162 -3.309080 9.188483 -4.347957 -0.763512 -92.688743 -79.719805 98.325875 20.490382 -23.996478 2.305060 -15.969627 -34.557445 2.795708 26.771437 85.698394 22.666810 0.587471 -15.479129 2.977731 -0.067770 0.457224 -0.033760 -13.695594 -44.857744 13.945135 170.517430 79.604018 165.147679 -1.644648 -16.248817 2.519947 -0.674360 -2.215434 -0.298411
